# xmcd
#
# Track frame offsets:
# 150
# 7652
# 35825
# 65835
# 98840
# 104923
# 127688
# 168971
# 192761
# 223321
# 262881
# 288022
#
# Disc length: 4154 seconds
#
# Revision: 0
# Processed by: cddbd v1.5.1PL0 Copyright (c) Steve Scherf et al.
# Submitted via: Audion 3.0.2 (http://www.panic.com/audion/)
#
DISCID=a610380c
DTITLE=Laurent Garnier - Unreasonable Behaviour
DYEAR=1900
DGENRE=
TTITLE0=Warning	 
TTITLE1=City Sphere	
TTITLE2=Forgotten Thoughts
TTITLE3=Sound Of The Big Babou
TTITLE4=Unreasonable Behaviour	 
TTITLE5=Cycles d'Oppositions	
TTITLE6=The Man With The Red Face	
TTITLE7=Communication From The Lab	 
TTITLE8=Greed	 
TTITLE9=Dangerous Drive	
TTITLE10=Downfall	
TTITLE11=Last Tribute From The 20th Century
EXTD=
EXTT0=
EXTT1=
EXTT2=
EXTT3=
EXTT4=
EXTT5=
EXTT6=
EXTT7=
EXTT8=
EXTT9=
EXTT10=
EXTT11=
PLAYORDER=
